<svg width="19" height="23" viewBox="0 0 19 23" fill="none" xmlns="http://www.w3.org/2000/svg">
<path d="M0.588665 21.1587L0.588669 21.1587L1.87155 6.87181L1.87155 6.8718L2.09565 6.89192C2.13052 6.50328 2.45625 6.2056 2.84639 6.2056L0.588665 21.1587ZM0.588665 21.1587C0.564135 21.4325 0.655741 21.7038 0.841189 21.9066C1.02663 22.1094 1.28879 22.2249 1.5635 22.2249H17.4351H17.4351H17.4351H17.4351H17.4351H17.4352H17.4352H17.4352H17.4352H17.4352H17.4352H17.4353H17.4353H17.4353H17.4353H17.4353H17.4353H17.4353H17.4354H17.4354H17.4354H17.4354H17.4354H17.4354H17.4355H17.4355H17.4355H17.4355H17.4355H17.4355H17.4356H17.4356H17.4356H17.4356H17.4356H17.4356H17.4356H17.4357H17.4357H17.4357H17.4357H17.4357H17.4357H17.4358H17.4358H17.4358H17.4358H17.4358H17.4358H17.4359H17.4359H17.4359H17.4359H17.4359H17.4359H17.436H17.436H17.436H17.436H17.436H17.436H17.4361H17.4361H17.4361H17.4361H17.4361H17.4361H17.4362H17.4362H17.4362H17.4362H17.4362H17.4362H17.4363H17.4363H17.4363H17.4363H17.4363H17.4363H17.4364H17.4364H17.4364H17.4364H17.4364H17.4364H17.4364H17.4365H17.4365H17.4365H17.4365H17.4365H17.4365H17.4366H17.4366H17.4366H17.4366H17.4366H17.4366H17.4367H17.4367H17.4367H17.4367H17.4367H17.4367H17.4368H17.4368H17.4368H17.4368H17.4368H17.4368H17.4368H17.4369H17.4369H17.4369H17.4369H17.4369H17.4369H17.437H17.437H17.437H17.437H17.437H17.437H17.437H17.4371H17.4371C17.9777 22.2249 18.4158 21.7867 18.4158 21.2461L18.4158 21.2456C18.4157 21.1949 18.4118 21.1444 18.4041 21.0949L17.1269 6.8718C17.0816 6.36713 16.6587 5.9806 16.1521 5.9806H13.7419V5.01709C13.7419 2.67781 11.8392 0.775 9.49999 0.775C7.16088 0.775 5.25841 2.67783 5.25841 5.01709V5.9806L0.588665 21.1587ZM7.21591 5.01709C7.21591 3.75753 8.24081 2.7325 9.50009 2.7325C10.7595 2.7325 11.7845 3.75755 11.7845 5.01709V5.9806H7.21591V5.01709ZM15.2574 7.9381L16.3645 20.2675H2.63411L3.74122 7.9381H5.25841V9.06101C5.25841 9.60153 5.6965 10.0398 6.23716 10.0398C6.77781 10.0398 7.21591 9.60153 7.21591 9.06101V7.9381H11.7845V9.06101C11.7845 9.60153 12.2226 10.0398 12.7632 10.0398C13.3039 10.0398 13.742 9.60153 13.742 9.06101V7.9381H15.2574Z" fill="black" stroke="white" stroke-width="0.45"/>
</svg>
